<svg width="21" height="21" viewBox="0 0 21 21" fill="none" xmlns="http://www.w3.org/2000/svg">
<path d="M3.89652 1.30701C3.89652 1.08655 3.89361 0.89875 3.89711 0.711535C3.90527 0.300946 4.20213 0.000586759 4.59756 3.53615e-06C4.99415 -0.000579687 5.28751 0.293365 5.29801 0.708036C5.30267 0.895251 5.29859 1.08305 5.29859 1.28426C8.3086 1.28426 11.293 1.28426 14.3018 1.28426C14.3018 1.07488 14.2971 0.879504 14.303 0.684708C14.3152 0.286366 14.6115 -0.00116291 15.0028 3.53615e-06C15.3872 0.00116998 15.691 0.298614 15.7021 0.691123C15.708 0.885919 15.7033 1.08072 15.7033 1.30351C15.9447 1.30351 16.1617 1.29651 16.3787 1.30467C17.9458 1.36183 19.1962 2.40055 19.5304 3.93268C19.5794 4.15838 19.5951 4.39517 19.5957 4.62671C19.6004 6.61025 19.5963 8.59379 19.6039 10.5773C19.6045 10.6963 19.6494 10.8369 19.7205 10.9308C22.5772 14.6996 20.3936 20.1533 15.7144 20.915C13.9554 21.2013 12.3661 20.7762 10.9349 19.7234C10.8386 19.6529 10.7004 19.605 10.5814 19.605C8.18963 19.598 5.79783 19.5759 3.40662 19.6085C1.79692 19.6307 0.246132 18.4858 0.0163425 16.6784C0.000595463 16.556 0.00117901 16.4311 0.00117901 16.3075C0.000595782 12.3987 -0.00115389 8.48998 0.00117901 4.58122C0.00234545 2.83447 1.39158 1.38516 3.13484 1.30876C3.38096 1.29767 3.62766 1.30701 3.89652 1.30701ZM9.42023 18.2012C7.92893 15.5318 8.01116 12.9942 9.92646 10.5785C12.3783 8.04206 15.151 7.78253 18.189 9.39339C18.189 8.48473 18.189 7.55449 18.189 6.61667C12.5906 6.61667 7.00335 6.61667 1.39916 6.61667C1.39916 6.70182 1.39916 6.77297 1.39916 6.84471C1.39916 9.95095 1.39858 13.0578 1.39916 16.164C1.39975 17.3917 2.21101 18.2001 3.44336 18.2006C4.47858 18.2012 5.5138 18.2006 6.5496 18.2006C7.50434 18.2012 8.45966 18.2012 9.42023 18.2012ZM9.79932 14.7036C9.79991 17.3812 12.0022 19.5934 14.6756 19.6015C17.3853 19.6097 19.5998 17.3981 19.6004 14.6844C19.601 12.0138 17.3876 9.80165 14.7124 9.79931C12.008 9.79581 9.79874 12.0021 9.79932 14.7036ZM18.1814 5.19185C18.403 3.33721 17.0873 2.48453 15.7033 2.74582C15.7033 2.91903 15.7056 3.094 15.7027 3.26838C15.6963 3.68655 15.3895 4.00441 14.9964 4.00266C14.6074 4.00033 14.3106 3.69647 14.3012 3.28413C14.2966 3.0975 14.3006 2.91029 14.3006 2.7219C11.286 2.7219 8.30219 2.7219 5.29918 2.7219C5.29918 2.9097 5.30151 3.0835 5.29859 3.25672C5.29218 3.69822 4.99123 4.01141 4.58648 4.00208C4.19222 3.99275 3.90061 3.67664 3.89652 3.25147C3.89477 3.07301 3.89652 2.89396 3.89652 2.72016C1.94273 2.51136 1.21661 3.87669 1.43007 5.19127C7.00802 5.19185 12.5877 5.19185 18.1814 5.19185Z" fill="black"/>
<path d="M14.0003 13.2951C14.0003 12.8361 13.9986 12.3771 14.0009 11.9181C14.0033 11.5058 14.296 11.2037 14.6903 11.2008C15.0968 11.1973 15.3966 11.5 15.3977 11.9228C15.4001 12.688 15.3931 13.4526 15.4047 14.2178C15.4065 14.3257 15.4631 14.4557 15.5377 14.5351C15.862 14.8797 16.2043 15.2075 16.5374 15.5446C16.864 15.8753 16.8815 16.2987 16.5858 16.5915C16.2901 16.8843 15.8707 16.8621 15.5395 16.5326C15.1108 16.1063 14.6868 15.6753 14.2552 15.2513C14.0785 15.0775 13.9922 14.8797 13.9974 14.629C14.0079 14.1845 14.0003 13.7395 14.0003 13.2951Z" fill="#18ADE4"/>
</svg>
