<svg width="20" height="20" viewBox="0 0 20 20" fill="none" xmlns="http://www.w3.org/2000/svg">
<path d="M0.00812792 13.7199C0.00812792 12.6673 0.00812792 11.6147 0.00812792 10.5629C0.00893084 8.82375 1.35141 7.46601 3.08813 7.45637C4.14075 7.45075 5.19338 7.45156 6.24521 7.45637C8.02608 7.4644 9.36856 8.81572 9.36856 10.595C9.36856 12.6922 9.36856 14.7886 9.36936 16.8859C9.37017 18.621 7.99878 19.9948 6.26046 19.998C5.21586 19.9996 4.17126 20.0012 3.12667 19.998C1.36185 19.9932 0.00812714 18.637 0.00732422 16.877C0.00732422 15.8252 0.00812792 14.7726 0.00812792 13.7199ZM0.86163 13.7248C0.86163 14.7774 0.860828 15.8292 0.86163 16.8818C0.863236 18.1561 1.83637 19.1356 3.11382 19.1429C4.16645 19.1493 5.21827 19.1493 6.2709 19.1429C6.45958 19.1421 6.65469 19.1188 6.83615 19.0682C7.87031 18.7832 8.51506 17.924 8.51586 16.8441C8.51667 14.771 8.51024 12.6986 8.51747 10.6255C8.52229 9.34404 7.59411 8.33798 6.31907 8.31309C5.2271 8.29141 4.13433 8.29382 3.04236 8.3163C1.79382 8.342 0.862434 9.31834 0.860828 10.5677C0.860025 11.6195 0.86163 12.6721 0.86163 13.7248Z" fill="black"/>
<path d="M19.9985 6.29215C19.9985 7.33595 19.9976 8.37974 19.9985 9.42434C19.9993 11.1876 18.6503 12.5493 16.8903 12.5517C15.7349 12.5533 14.5787 12.5646 13.4249 12.5308C12.3266 12.4987 11.1824 11.6276 10.8556 10.5781C10.7279 10.1678 10.6477 9.72544 10.6436 9.29668C10.622 7.2412 10.6187 5.18412 10.6388 3.12865C10.6525 1.80464 11.2747 0.825877 12.4855 0.280695C12.8589 0.112884 13.2973 0.0333962 13.7092 0.0205494C14.7915 -0.014779 15.8763 0.00529279 16.9602 0.00930739C18.607 0.0149278 19.9848 1.38953 19.996 3.04194C20.0033 4.12588 19.9977 5.20982 19.9977 6.29376C19.9977 6.29215 19.9985 6.29215 19.9985 6.29215ZM19.1441 6.27931C19.1441 5.2034 19.1498 4.12668 19.1425 3.05077C19.1353 1.87048 18.1349 0.869235 16.9586 0.863615C15.8747 0.857994 14.7899 0.857192 13.706 0.863615C12.5048 0.870841 11.4995 1.84559 11.4915 3.04515C11.4771 5.19778 11.4755 7.3504 11.4931 9.50303C11.5028 10.709 12.4277 11.6516 13.6393 11.6878C14.7305 11.7199 15.8233 11.7054 16.916 11.695C18.1839 11.6838 19.1385 10.7106 19.1441 9.43719C19.1474 8.38376 19.1441 7.33113 19.1441 6.27931Z" fill="black"/>
<path d="M4.69236 6.1733C4.14236 6.1733 3.59236 6.17651 3.04236 6.17249C1.47025 6.16125 0.149444 4.93198 0.0113416 3.35585C-0.123549 1.81184 0.95959 0.358552 2.47149 0.0662893C2.66579 0.0285521 2.86652 0.0124918 3.06484 0.0116889C4.14879 0.00606845 5.23353 0.00847898 6.31747 0.00847898C7.84141 0.0092819 9.1309 1.18315 9.33886 2.69906C9.58134 4.4687 8.18105 6.19016 6.27171 6.1733C5.74499 6.16928 5.21908 6.1733 4.69236 6.1733ZM4.67309 5.3214C5.22309 5.3214 5.77309 5.32541 6.32229 5.32059C7.52105 5.31016 8.5247 4.28964 8.51506 3.09329C8.50543 1.86804 7.51061 0.864392 6.29981 0.861983C5.23995 0.860377 4.1801 0.860377 3.12025 0.861983C1.8709 0.864392 0.867254 1.84476 0.860831 3.0668C0.853604 4.31614 1.83638 5.30855 3.09455 5.31899C3.62127 5.32461 4.14718 5.32059 4.67309 5.3214Z" fill="#18ADE4"/>
<path d="M15.3319 13.8316C15.8497 13.8316 16.3684 13.8316 16.8863 13.8316C18.5098 13.8324 19.8122 15.003 19.9896 16.6217C20.1558 18.1304 19.1305 19.5524 17.6041 19.9145C17.3817 19.9675 17.1481 19.9932 16.9192 19.9948C15.8594 20.0028 14.7987 19.9996 13.7381 19.998C11.9692 19.9956 10.5738 18.5511 10.6332 16.7863C10.687 15.1893 12.0351 13.8597 13.6337 13.8348C14.1997 13.8259 14.7658 13.8332 15.3319 13.8332C15.3319 13.8332 15.3319 13.8324 15.3319 13.8316ZM15.3319 14.6843C14.7899 14.6843 14.2479 14.681 13.7068 14.6851C12.4767 14.6939 11.4867 15.7 11.4875 16.9365C11.4883 18.1296 12.4927 19.1365 13.7027 19.1445C14.7706 19.1517 15.8377 19.1525 16.9056 19.1445C18.1565 19.134 19.1425 18.1465 19.1425 16.9164C19.1425 15.6831 18.1613 14.7003 16.9104 14.6867C16.3837 14.6802 15.8578 14.6851 15.3319 14.6843Z" fill="#18ADE4"/>
</svg>
