<svg width="18" height="18" viewBox="0 0 18 18" fill="none" xmlns="http://www.w3.org/2000/svg">
<path d="M14.625 9C14.625 8.85082 14.6843 8.70774 14.7898 8.60225C14.8952 8.49676 15.0383 8.4375 15.1875 8.4375C15.3367 8.4375 15.4798 8.49676 15.5852 8.60225C15.6907 8.70774 15.75 8.85082 15.75 9V15.1875C15.75 15.3367 15.6907 15.4798 15.5852 15.5852C15.4798 15.6907 15.3367 15.75 15.1875 15.75H2.8125C2.66332 15.75 2.52024 15.6907 2.41475 15.5852C2.30926 15.4798 2.25 15.3367 2.25 15.1875V2.8125C2.25 2.66332 2.30926 2.52024 2.41475 2.41475C2.52024 2.30926 2.66332 2.25 2.8125 2.25H9C9.14918 2.25 9.29226 2.30926 9.39775 2.41475C9.50324 2.52024 9.5625 2.66332 9.5625 2.8125C9.5625 2.96168 9.50324 3.10476 9.39775 3.21025C9.29226 3.31574 9.14918 3.375 9 3.375H3.375V14.625H14.625V9Z" fill="#3577F1"/>
<path d="M8.26086 9.74251L9.18898 9.60976L14.8905 3.90938C14.9442 3.85749 14.9871 3.79542 15.0165 3.7268C15.046 3.65817 15.0615 3.58436 15.0622 3.50967C15.0628 3.43498 15.0486 3.36091 15.0203 3.29178C14.992 3.22265 14.9503 3.15985 14.8975 3.10703C14.8446 3.05422 14.7818 3.01245 14.7127 2.98417C14.6436 2.95589 14.5695 2.94165 14.4948 2.9423C14.4201 2.94295 14.3463 2.95847 14.2777 2.98795C14.2091 3.01743 14.147 3.06028 14.0951 3.11401L8.39248 8.81438L8.25973 9.74251H8.26086ZM15.6859 2.31751C15.8427 2.47422 15.9671 2.6603 16.0519 2.8651C16.1368 3.06991 16.1805 3.28943 16.1805 3.51113C16.1805 3.73283 16.1368 3.95235 16.0519 4.15716C15.9671 4.36197 15.8427 4.54804 15.6859 4.70476L9.85273 10.5379C9.76672 10.6242 9.65499 10.6803 9.53436 10.6976L7.67811 10.9631C7.5916 10.9756 7.50339 10.9677 7.42046 10.94C7.33754 10.9124 7.2622 10.8659 7.2004 10.8041C7.1386 10.7423 7.09205 10.6669 7.06444 10.584C7.03684 10.5011 7.02893 10.4129 7.04136 10.3264L7.30686 8.47013C7.3239 8.34964 7.37956 8.23793 7.46548 8.15176L13.2997 2.31863C13.6162 2.00227 14.0453 1.82455 14.4928 1.82455C14.9403 1.82455 15.3694 2.00227 15.6859 2.31863V2.31751Z" fill="#3577F1"/>
</svg>
