<svg width="23" height="26" viewBox="0 0 23 26" fill="none" xmlns="http://www.w3.org/2000/svg">
<path d="M13.1188 14.8542C12.9304 14.4755 12.7401 14.0939 12.5498 13.7123C12.4827 13.5781 12.4936 13.4756 12.6218 13.372C13.5172 12.6531 13.2223 12.6305 14.0724 13.303C14.4126 13.5722 14.6601 13.6639 15.1049 13.4943C15.5486 13.3257 15.7311 13.1275 15.8316 12.663C16.0525 11.6483 15.8139 11.8268 16.9489 11.8208C17.1471 11.8199 17.2438 11.8899 17.2793 12.0871C17.3394 12.4273 17.4085 12.7665 17.4972 13.1008C17.5229 13.1975 17.6136 13.3069 17.7033 13.3494C17.8946 13.4401 18.1293 13.4529 18.3029 13.5653C18.5869 13.7497 18.7831 13.6698 18.9814 13.4519C19.0425 13.3849 19.1204 13.3306 19.1973 13.2823C19.4261 13.1383 19.7032 12.8445 19.8778 12.8947C20.1746 12.9815 20.4123 13.2803 20.6608 13.5061C20.7032 13.5446 20.7022 13.6768 20.6716 13.7409C20.5119 14.0702 20.3472 14.3986 20.1598 14.7132C20.072 14.8601 20.077 14.9568 20.1736 15.0938C20.3127 15.293 20.4448 15.5041 20.5375 15.7279C20.6144 15.9143 20.7219 15.9508 20.9063 15.9518C21.2426 15.9528 21.5789 15.9863 21.9151 16.007C21.925 16.008 21.9358 16.009 21.9457 16.01C22.3096 16.0583 22.2346 16.3857 22.2553 16.5888C22.278 16.8097 22.5374 17.1144 22.1508 17.2811C21.8244 17.4221 21.496 17.5631 21.1617 17.6834C21.0069 17.7387 20.9379 17.8067 20.9241 17.9803C20.9033 18.2426 20.8245 18.5 20.7959 18.7623C20.785 18.8589 20.8195 18.993 20.8846 19.0601C21.14 19.3234 21.427 19.5561 21.6775 19.8243C21.7426 19.8944 21.7692 20.0788 21.7238 20.1596C21.1627 21.1665 21.4122 21.0629 20.4053 20.7286C19.9931 20.5916 19.7348 20.6014 19.3709 20.8973C18.9804 21.2158 18.9054 21.4919 18.9695 21.9643C19.1066 22.9652 19.1885 22.7344 18.2851 23.0855C18.0475 23.1782 17.8956 23.1486 17.7684 22.9179C17.6156 22.6417 17.4262 22.3853 17.2724 22.1102C17.1935 21.9682 17.1176 21.9002 16.941 21.9268C16.7507 21.9554 16.5446 21.9751 16.3622 21.9317C16.0151 21.8489 15.8425 21.9958 15.7143 22.2917C15.6472 22.4485 15.5378 22.5895 15.4362 22.7295C15.0772 23.2226 15.2232 23.194 14.6088 22.9879C14.0102 22.7867 13.9866 22.7334 14.0832 22.1181C14.099 22.0175 14.0931 21.908 14.1306 21.8173C14.3159 21.3736 14.1187 21.1083 13.7489 20.8874C13.5862 20.7908 13.46 20.631 13.3229 20.5048C12.9038 20.6241 12.4876 20.7523 12.0656 20.8529C11.9808 20.8726 11.8319 20.8174 11.7796 20.7474C11.2185 19.9802 11.2205 19.8618 11.9581 19.2701C12.2697 19.0206 12.388 18.8204 12.3161 18.3787C12.2322 17.8629 12.0636 17.6055 11.5607 17.4369C10.757 17.1677 10.757 17.0858 10.9601 16.2506C11.0134 16.0317 11.0923 15.9212 11.3418 15.9291C11.677 15.9399 12.0153 15.9153 12.3496 15.8798C12.4462 15.8699 12.5665 15.793 12.6208 15.7102C12.7963 15.4419 12.9482 15.153 13.1188 14.8542ZM19.1155 17.5424C19.1046 16.1352 17.9607 15.0169 16.5426 15.0278C15.1512 15.0376 14.0477 16.1934 14.0586 17.6282C14.0694 18.9832 15.2478 20.1261 16.6117 20.1064C17.9962 20.0847 19.1263 18.9279 19.1155 17.5424Z" fill="#18ADE4"/>
<path d="M1.21901 24.7619C6.15167 24.7619 11.0617 24.7619 15.9983 24.7619C15.9983 24.4858 15.9983 24.2235 15.9983 23.9355C16.4046 23.9355 16.7852 23.9355 17.1905 23.9355C17.1905 24.474 17.2142 25.0124 17.1806 25.5469C17.1639 25.8131 16.942 25.963 16.6718 25.9926C16.5406 26.0064 16.4065 25.9966 16.2734 25.9966C11.1139 25.9966 5.95543 25.9966 0.795953 25.9966C0.18652 25.9966 0.00211151 25.821 0.00211151 25.2244C0.00112537 17.8382 0.000140314 10.4521 0.000140314 3.0649C0.000140314 2.95248 -0.00183232 2.84006 0.0090152 2.72764C0.0356409 2.45152 0.249632 2.21386 0.522793 2.21091C1.63516 2.20104 2.74654 2.20696 3.88454 2.20696C3.88454 2.61424 3.88454 3.00277 3.88454 3.41893C2.99504 3.41893 2.11935 3.41893 1.21802 3.41893C1.21901 10.5418 1.21901 17.6361 1.21901 24.7619Z" fill="black"/>
<path d="M6.98197 1.59459C7.10622 0.601546 7.73341 0 8.60417 0C9.47296 0 10.1031 0.60253 10.2283 1.59557C10.6455 1.59557 11.0695 1.59459 11.4945 1.59557C12.0655 1.59656 12.3594 1.86873 12.3337 2.43478C12.319 2.76316 12.2864 3.11423 12.1572 3.40908C11.9067 3.97907 11.3989 4.21278 10.7934 4.21574C9.33391 4.22265 7.87344 4.22363 6.41395 4.21574C5.48896 4.21081 4.87262 3.57672 4.86769 2.6468C4.8667 2.53438 4.86374 2.42196 4.86867 2.30954C4.8884 1.8924 5.17536 1.60445 5.5925 1.59656C6.05007 1.58867 6.50764 1.59459 6.98197 1.59459ZM8.60121 2.27108C8.97693 2.27206 9.28164 1.9634 9.27277 1.59261C9.26488 1.24648 8.93847 0.933873 8.59431 0.942748C8.24127 0.951623 7.93162 1.26916 7.93852 1.6153C7.94543 1.98017 8.23831 2.27009 8.60121 2.27108Z" fill="black"/>
<path d="M17.1757 10.9392C16.7921 10.9392 16.4282 10.9392 16.0249 10.9392C16.0249 8.44431 16.0249 5.96121 16.0249 3.44261C15.1068 3.44261 14.2252 3.44261 13.3209 3.44261C13.3209 3.01759 13.3209 2.62806 13.3209 2.22078C13.4245 2.21487 13.5132 2.20599 13.603 2.20599C14.593 2.20501 15.5831 2.20304 16.5732 2.20698C16.9617 2.20797 17.2014 2.42393 17.2014 2.79866C17.2063 5.47307 17.2034 8.14649 17.2024 10.8209C17.2034 10.8505 17.1895 10.8801 17.1757 10.9392Z" fill="black"/>
<path d="M14.8189 8.56659C14.8189 8.84764 14.8189 9.0991 14.8189 9.36832C12.3851 9.36832 9.96804 9.36832 7.52734 9.36832C7.52734 9.11291 7.52734 8.85356 7.52734 8.56659C9.94338 8.56659 12.3663 8.56659 14.8189 8.56659Z" fill="#18ADE4"/>
<path d="M3.83527 16.9241C4.54529 16.3038 5.23657 15.7013 5.93575 15.0909C6.11818 15.2999 6.29174 15.4982 6.48897 15.725C5.57679 16.5247 4.67743 17.3127 3.75835 18.1193C3.24063 17.5395 2.73967 16.9784 2.21307 16.3886C2.4172 16.2032 2.61542 16.0238 2.83434 15.8246C3.17752 16.2013 3.50393 16.5602 3.83527 16.9241Z" fill="#18ADE4"/>
<path d="M5.90412 19.2642C6.09445 19.4792 6.26899 19.6745 6.46425 19.8953C5.55306 20.6941 4.65271 21.482 3.73264 22.2877C3.21196 21.7059 2.70509 21.1399 2.18243 20.5561C2.40333 20.3598 2.59957 20.1853 2.81258 19.9959C3.14195 20.3618 3.46639 20.7217 3.80463 21.0975C4.50381 20.488 5.19213 19.8865 5.90412 19.2642Z" fill="#18ADE4"/>
<path d="M5.98796 6.75211C6.19011 6.98188 6.35776 7.1722 6.54414 7.38422C5.63492 8.18102 4.73852 8.96599 3.81352 9.77659C3.29876 9.20168 2.79188 8.63464 2.26923 8.04986C2.47336 7.8625 2.66763 7.68499 2.88754 7.48283C3.21691 7.84475 3.54233 8.20272 3.88847 8.58238C4.59158 7.96999 5.28681 7.36351 5.98796 6.75211Z" fill="#18ADE4"/>
<path d="M2.86977 11.6552C3.21098 12.0358 3.52851 12.3908 3.85788 12.7577C4.55706 12.1463 5.24637 11.5438 5.95639 10.9225C6.14671 11.1375 6.32718 11.3406 6.51849 11.5566C5.60828 12.3524 4.71089 13.1354 3.7859 13.944C3.27113 13.3711 2.76426 12.807 2.23273 12.2163C2.44573 12.0279 2.64986 11.8485 2.86977 11.6552Z" fill="#18ADE4"/>
<path d="M11.6563 12.731C11.6563 13.0151 11.6563 13.2646 11.6563 13.5269C10.2669 13.5269 8.8981 13.5269 7.51257 13.5269C7.51257 13.2547 7.51257 13.0042 7.51257 12.731C8.89021 12.731 10.2609 12.731 11.6563 12.731Z" fill="#18ADE4"/>
<path d="M7.4494 21.8647C7.4494 21.5925 7.4494 21.3479 7.4494 21.0787C8.68701 21.0787 9.91573 21.0787 11.1602 21.0787C11.1602 21.339 11.1602 21.5905 11.1602 21.8647C9.93151 21.8647 8.7018 21.8647 7.4494 21.8647Z" fill="#18ADE4"/>
<path d="M9.9897 17.6992C9.13274 17.6992 8.31425 17.6992 7.46025 17.6992C7.46025 17.4724 7.44546 17.2594 7.46913 17.0503C7.47603 16.9882 7.59042 16.8926 7.65748 16.8916C8.36947 16.8797 9.08245 16.8797 9.79543 16.8916C9.8615 16.8926 9.97392 16.9912 9.98082 17.0533C10.0045 17.2633 9.9897 17.4763 9.9897 17.6992Z" fill="#18ADE4"/>
</svg>
