<svg width="18" height="18" viewBox="0 0 18 18" fill="none" xmlns="http://www.w3.org/2000/svg">
<path fill-rule="evenodd" clip-rule="evenodd" d="M13.4913 12.5936L18 17.0762L17.0707 18L12.5521 13.5086C11.0263 14.7592 9.07359 15.3758 7.10142 15.2298C5.12925 15.0837 3.29002 14.1862 1.96756 12.7246C0.645095 11.263 -0.0584282 9.35025 0.00380295 7.38547C0.0660341 5.42069 0.889212 3.5557 2.30155 2.17969C3.71389 0.803688 5.60627 0.022983 7.58378 0.00049939C9.56129 -0.0219843 11.4711 0.71549 12.9148 2.05902C14.3584 3.40256 15.2243 5.24834 15.3317 7.21119C15.4391 9.17404 14.7798 11.1023 13.4913 12.5936ZM14.0283 7.62507C14.0283 5.94938 13.3587 4.34232 12.1666 3.15743C10.9745 1.97254 9.35777 1.30687 7.67194 1.30687C5.98612 1.30687 4.36934 1.97254 3.17729 3.15743C1.98523 4.34232 1.31554 5.94938 1.31554 7.62507C1.31554 9.30077 1.98523 10.9078 3.17729 12.0927C4.36934 13.2776 5.98612 13.9433 7.67194 13.9433C9.35777 13.9433 10.9745 13.2776 12.1666 12.0927C13.3587 10.9078 14.0283 9.30077 14.0283 7.62507Z" fill="black"/>
</svg>
