<svg width="23" height="23" viewBox="0 0 23 23" fill="none" xmlns="http://www.w3.org/2000/svg">
<path d="M18.1601 6.86477C18.8297 7.82378 19.2827 8.91687 19.4879 10.0683H22V12.9317H19.4879C19.2827 14.0831 18.8297 15.1762 18.1601 16.1352L19.9373 17.9123L17.9123 19.9373L16.1352 18.1601C15.1762 18.8297 14.0831 19.2827 12.9317 19.4879V22H10.0683V19.4879C8.91687 19.2827 7.82378 18.8297 6.86477 18.1601L5.08765 19.9373L3.06272 17.9123L4.83985 16.1352C4.17034 15.1762 3.7173 14.0831 3.51212 12.9317H1V10.0683H3.51212C3.7173 8.91687 4.17034 7.82378 4.83985 6.86477L3.06272 5.08765L5.08765 3.06272L6.86477 4.83985C7.82378 4.17034 8.91687 3.7173 10.0683 3.51212V1H12.9317V3.51212C14.0831 3.7173 15.1762 4.17034 16.1352 4.83985L17.9123 3.06272L19.9373 5.08765L18.1601 6.86477Z" stroke="black" stroke-width="1.2" stroke-linejoin="round"/>
<path d="M11.5 14.125C12.1962 14.125 12.8639 13.8484 13.3562 13.3562C13.8484 12.8639 14.125 12.1962 14.125 11.5C14.125 10.8038 13.8484 10.1361 13.3562 9.64384C12.8639 9.15156 12.1962 8.875 11.5 8.875C10.8038 8.875 10.1361 9.15156 9.64384 9.64384C9.15156 10.1361 8.875 10.8038 8.875 11.5C8.875 12.1962 9.15156 12.8639 9.64384 13.3562C10.1361 13.8484 10.8038 14.125 11.5 14.125Z" stroke="#18ADE4" stroke-width="1.2" stroke-linejoin="round"/>
</svg>
