<svg width="18" height="10" viewBox="0 0 18 10" fill="none" xmlns="http://www.w3.org/2000/svg">
<path fill-rule="evenodd" clip-rule="evenodd" d="M8.99846 2.02482C9.68666 2.02236 10.3544 2.2586 10.888 2.69329C11.4215 3.12798 11.7879 3.73422 11.9245 4.40873C12.0612 5.08323 11.9598 5.78425 11.6375 6.39236C11.3153 7.00046 10.7922 7.47802 10.1573 7.74366C9.5224 8.0093 8.81506 8.04658 8.15578 7.84916C7.49649 7.65174 6.92605 7.23183 6.54166 6.66098C6.15726 6.09012 5.9827 5.40364 6.0477 4.71851C6.11271 4.03338 6.41326 3.39198 6.89816 2.9036C7.17306 2.62594 7.50013 2.40535 7.86058 2.25454C8.22103 2.10372 8.60773 2.02565 8.99846 2.02482ZM0.153472 4.58794C0.619321 4.02198 1.1244 3.48949 1.66498 2.99441C3.76968 1.07866 6.16291 0.0548698 8.64109 0.00214263C11.1193 -0.0505846 13.6341 0.869212 16.0156 2.83184C16.6688 3.37331 17.2825 3.96066 17.8522 4.58941C17.9407 4.68909 17.9926 4.81599 17.9993 4.94913C18.0059 5.08228 17.967 5.21371 17.8888 5.32173C17.2551 6.22512 16.4967 7.0343 15.6362 7.72521C13.8388 9.17773 11.6008 9.97571 9.28992 9.98809C6.96233 9.98201 4.6952 9.24645 2.80741 7.88486C1.79752 7.16754 0.894584 6.31047 0.125644 5.33931C0.0397232 5.23141 -0.00470929 5.0963 0.000395667 4.95847C0.00550063 4.82064 0.0598054 4.68919 0.153472 4.58794ZM2.44271 3.85562C2.05201 4.21063 1.68091 4.58662 1.33105 4.98193C1.96185 5.71998 2.68102 6.37766 3.47236 6.94016C5.16479 8.16296 7.19759 8.8252 9.28553 8.83395C11.3344 8.82133 13.3181 8.11275 14.9112 6.82446C15.568 6.2975 16.1582 5.69254 16.6688 5.02294C16.2309 4.56346 15.7662 4.13015 15.2774 3.72527C13.117 1.94426 10.8498 1.11234 8.6572 1.15775C6.46462 1.20315 4.33943 2.12295 2.44271 3.84976V3.85562ZM8.25588 2.71466C8.48386 2.71466 8.70672 2.78227 8.89628 2.90892C9.08583 3.03558 9.23357 3.21561 9.32082 3.42623C9.40806 3.63685 9.43089 3.86862 9.38641 4.09221C9.34193 4.31581 9.23215 4.5212 9.07095 4.6824C8.90974 4.84361 8.70436 4.95339 8.48076 4.99786C8.25716 5.04234 8.0254 5.01951 7.81477 4.93227C7.60415 4.84503 7.42413 4.69729 7.29747 4.50773C7.17081 4.31817 7.10321 4.09532 7.10321 3.86734C7.10302 3.71591 7.1327 3.56594 7.19056 3.426C7.24842 3.28606 7.33332 3.15892 7.44039 3.05184C7.54746 2.94477 7.67461 2.85987 7.81455 2.80201C7.95448 2.74415 8.10446 2.71447 8.25588 2.71466Z" fill="#18ADE4"/>
</svg>
