<svg width="21" height="21" viewBox="0 0 21 21" fill="none" xmlns="http://www.w3.org/2000/svg">
<path d="M12.9372 1.44325C12.9372 1.20708 12.9335 0.986171 12.9378 0.76587C12.9475 0.322217 13.2624 -0.00121706 13.6792 3.44263e-06C14.0905 0.00122395 14.3932 0.30574 14.4115 0.747562C14.4207 0.974576 14.4134 1.20159 14.4134 1.46156C14.7252 1.46156 15.0126 1.46339 15.2995 1.46095C16.2014 1.45423 17.0124 1.71603 17.71 2.29394C18.5826 3.0177 19.0275 3.9581 19.0549 5.08523C19.0745 5.88588 19.0611 6.68715 19.0586 7.48841C19.0574 7.97051 18.7535 8.30004 18.3184 8.30004C17.8833 8.30004 17.5879 7.97783 17.583 7.48719C17.5745 6.63283 17.5977 5.77726 17.5586 4.92474C17.5098 3.84764 16.5566 2.96278 15.474 2.94203C15.1316 2.93532 14.7887 2.94081 14.4152 2.94081C14.4152 3.16721 14.4183 3.37836 14.4146 3.59012C14.4054 4.06977 14.0936 4.40846 13.6707 4.40236C13.2484 4.39626 12.9408 4.04964 12.9378 3.57425C12.9366 3.37043 12.9378 3.16599 12.9378 2.95057C10.6579 2.95057 8.40178 2.95057 6.10845 2.95057C6.10845 3.04943 6.10845 3.15257 6.10845 3.2557C6.10845 4.04781 5.88815 4.39626 5.38286 4.40175C4.87452 4.40785 4.64567 4.04842 4.64506 3.24471C4.64506 3.15379 4.64506 3.06347 4.64506 2.9762C3.50755 2.68938 2.34563 3.09947 1.80556 3.97152C1.59685 4.30899 1.4803 4.67576 1.4803 5.07486C1.47969 9.0116 1.48152 12.9483 1.47847 16.8851C1.47724 17.906 2.31573 19.0557 3.784 19.0435C5.66113 19.0271 7.53827 19.0387 9.4154 19.0405C9.8316 19.0405 10.1013 19.2052 10.2197 19.5214C10.4004 20.0041 10.0452 20.5051 9.50389 20.5155C9.00837 20.5246 8.51223 20.5179 8.0161 20.5179C6.58139 20.5179 5.14669 20.5203 3.7126 20.5173C1.95385 20.513 0.497181 19.3664 0.0992964 17.6595C0.0291174 17.3586 0.00592726 17.0407 0.00531701 16.7301C-0.00078551 12.9001 -0.00139595 9.07018 0.00226556 5.24024C0.00409632 3.40643 1.11781 1.9522 2.85703 1.56469C3.32631 1.46034 3.82611 1.49146 4.31187 1.46278C4.41622 1.45668 4.52179 1.46217 4.64567 1.46217C4.64567 1.20708 4.64384 0.979458 4.64628 0.751834C4.65056 0.319775 4.95507 0.00488572 5.37065 0.00122421C5.79173 -0.00243731 6.1054 0.320386 6.10906 0.762819C6.11089 0.98373 6.10967 1.20464 6.10967 1.44386C8.38103 1.44325 10.642 1.44325 12.9372 1.44325Z" fill="black"/>
<path d="M16.1111 15.6182C14.3206 15.2545 13.4046 13.7465 13.6286 12.2423C13.8519 10.7447 15.1683 9.70849 16.7427 9.77013C18.1548 9.82566 19.3558 11.0236 19.4577 12.5297C19.5529 13.9339 18.593 15.3106 16.9795 15.6279C17.1375 15.6578 17.2968 15.6829 17.4537 15.7183C19.1202 16.0942 20.2748 17.0816 20.8839 18.67C21.3281 19.8289 20.5122 20.975 19.2704 20.9829C17.4701 20.9939 15.6693 21 13.869 21C12.9549 21 12.2927 20.5075 12.0895 19.6879C12.0047 19.3468 12.0212 19.0045 12.1536 18.6774C12.8408 16.9894 14.0741 15.9752 15.8798 15.6707C15.9457 15.6603 16.0098 15.642 16.1111 15.6182ZM16.5053 19.5238C16.5053 19.522 16.5053 19.5201 16.5053 19.5189C17.3902 19.5189 18.2757 19.5195 19.1605 19.5189C19.5163 19.5189 19.5987 19.3944 19.4644 19.0649C18.9836 17.8828 17.8045 17.0907 16.5291 17.0913C15.2525 17.0919 14.0576 17.8969 13.5767 19.0801C13.4498 19.3926 13.5358 19.5232 13.8727 19.5238C14.7502 19.5244 15.6278 19.5238 16.5053 19.5238ZM17.9852 12.7054C17.9907 11.903 17.3505 11.2463 16.5499 11.2323C15.7541 11.2189 15.084 11.8694 15.0755 12.6646C15.0663 13.4957 15.715 14.1621 16.5316 14.1615C17.3285 14.1609 17.9797 13.5085 17.9852 12.7054Z" fill="#18ADE4"/>
<path d="M7.08788 11.7162C7.8812 11.7162 8.67453 11.7101 9.46725 11.7181C10.0311 11.7236 10.3838 12.1776 10.2258 12.6743C10.1294 12.9764 9.85537 13.19 9.5179 13.1906C7.89341 13.1955 6.26892 13.1967 4.64443 13.19C4.22762 13.1882 3.91579 12.8635 3.9109 12.4662C3.90541 12.0476 4.19833 11.729 4.63954 11.7217C5.45545 11.7089 6.27136 11.7181 7.08788 11.7181C7.08788 11.7181 7.08788 11.7168 7.08788 11.7162Z" fill="#18ADE4"/>
<path d="M6.14508 9.28256C5.67275 9.28256 5.1998 9.28622 4.72747 9.28134C4.22645 9.27645 3.90424 8.97499 3.91156 8.52767C3.91827 8.09562 4.2472 7.80636 4.73906 7.80575C5.70692 7.80453 6.67478 7.80269 7.64264 7.80697C8.01001 7.8088 8.31026 8.04435 8.38715 8.36901C8.46465 8.69854 8.3127 9.05493 8.00513 9.19468C7.8721 9.25509 7.7116 9.27523 7.56331 9.27889C7.09036 9.28866 6.61803 9.28256 6.14508 9.28256Z" fill="#18ADE4"/>
</svg>
